<?xml version="1.0" encoding="utf-8"?>
<!-- Generator: Adobe Illustrator 25.4.1, SVG Export Plug-In . SVG Version: 6.00 Build 0)  -->
<svg version="1.1" id="Layer_1" xmlns="http://www.w3.org/2000/svg" xmlns:xlink="http://www.w3.org/1999/xlink" x="0px" y="0px"
	 viewBox="0 0 2895.8 2131.8" style="enable-background:new 0 0 2895.8 2131.8;" xml:space="preserve">
<style type="text/css">
	.st0{fill:#ECECEC;}
	.st1{fill:#F5F5F5;}
	.st2{fill:#E1E1E1;}
	.st3{fill:#E7E7E7;}
	.st4{fill:#F0F0F0;}
	.st5{fill:#E7E7E7;enable-background:new    ;}
	.st6{fill:#007CFF;}
	.st7{opacity:0.3;fill:#FFFFFF;}
	.st8{fill:#1A2E35;}
	.st9{opacity:0.7;fill:#FFFFFF;}
	.st10{opacity:0.1;}
	.st11{opacity:0.6;fill:#FFFFFF;}
	.st12{opacity:0.5;}
	.st13{fill:#FFFFFF;}
	.st14{opacity:0.5;fill:#FFFFFF;}
	.st15{opacity:0.6;}
	.st16{fill:#FFC3BD;}
	.st17{opacity:0.2;enable-background:new    ;}
	.st18{fill:#FF847F;}
	.st19{opacity:0.9;}
	.st20{opacity:0.8;fill:#FFFFFF;}
	.st21{fill:#903C38;}
	.st22{fill:#740606;}
	.st23{fill:#FFB570;}
	.st24{fill:#FF8935;}
	.st25{opacity:0.9;fill:#FFFFFF;}
	.st26{opacity:0.2;}
	.st27{opacity:0.4;}
</style>
<g id="Background">
</g>
<g>
	<rect x="2391.9" y="1966" class="st0" width="187.3" height="1.4"/>
	<rect x="1858.8" y="1981.4" class="st0" width="49.2" height="1.4"/>
	<rect x="2277.7" y="1913.5" class="st0" width="108.5" height="1.4"/>
	<rect x="331.4" y="1923" class="st0" width="244.3" height="1.4"/>
	<rect x="626.1" y="1923" class="st0" width="35.8" height="1.4"/>
	<rect x="778.3" y="1946.9" class="st0" width="529.8" height="1.4"/>
	<path class="st0" d="M1375.2,1622.8H283.1c-17.8,0-32.3-14.5-32.3-32.3V55.4c0-17.8,14.5-32.3,32.3-32.3h1092.1
		c17.8,0,32.3,14.5,32.3,32.3v1535.1C1407.5,1608.3,1393,1622.8,1375.2,1622.8z M283.1,24.5c-17,0-30.9,13.8-30.9,30.9v1535.1
		c0,17,13.8,30.9,30.9,30.9h1092.1c17,0,30.9-13.8,30.9-30.9V55.4c0-17-13.8-30.9-30.9-30.9H283.1z"/>
	<path class="st0" d="M2598.5,1622.8H1506.4c-17.8,0-32.3-14.5-32.3-32.3V55.4c0-17.8,14.5-32.3,32.3-32.3h1092.1
		c17.8,0,32.3,14.5,32.3,32.3v1535.1C2630.8,1608.3,2616.3,1622.8,2598.5,1622.8z M1506.4,24.5c-17,0-30.9,13.8-30.9,30.9v1535.1
		c0,17,13.8,30.9,30.9,30.9h1092.1c17,0,30.9-13.8,30.9-30.9V55.4c0-17-13.8-30.9-30.9-30.9H1506.4z"/>
	<rect x="34.8" y="1875" class="st0" width="2827.8" height="1.4"/>
</g>
<g>
	<g>
		<path class="st1" d="M779.4,1578.8c0.7,0.8-3.1,6.1,12.4,3.8c24.4-3.7,67.8-27.3,96-43.9c12.7-7.5,14.2-25.2,3.1-34.9
			c-14.6-12.8-30.2-30.4-28.7-45.9c1.6-16.4,36-35.5,65.1-48.9c15.1-6.9,17.2-27.4,3.7-37.2c-9.3-6.8-16.8-14.6-17.1-22.2
			c-0.5-11.1,24.9-25.7,48.3-36.8c13-6.2,16.2-22.7,7-33.8c-3.2-3.9-4.8-8.4-3.1-13.3c2.4-7.1,7.8-25,13.7-44.6
			c6.2-20.5-18-36.6-34.5-22.9c-23.1,19-46.8,37.9-56.7,43.5c-4.8,2.7-9.3,2-13.5-0.7c-13.3-8.6-30.9-2-33.8,13.5
			c-7.2,39.4-19.4,86.1-37.8,97.5c-10.1,6.3-20.4,7.1-29,5.8c-12.2-1.8-23.6,6.6-25,18.8C744.1,1426.3,737.7,1532.3,779.4,1578.8z"
			/>
		<path class="st2" d="M897.2,1349.9c-15,1.3-26.1,4.3-33,6.8c13.5-19.7,23.1-29.8,23.5-30.2c1.1-1.1,1.1-2.9,0-4
			c-1.1-1.1-2.9-1.1-4,0c-0.3,0.3-22.6,23.3-47,68.2c-12-72.3,18.3-135.5,18.6-136.2c0.5-1.1,0.1-2.3-1-2.8c-1-0.5-2.3-0.1-2.8,1
			c-0.3,0.7-32.7,68.1-18,144c-3.9,7.4-7.8,15.4-11.7,24c-11.2,24.7-23,56.4-32.2,94.5c-6.4-11.6-21.2-42.8-22.5-86.3
			c0-1.2-1-2.1-2.2-2.1c-1.2,0.1-2.1,1-2.1,2.2c1.5,50.4,20.8,84.8,25.3,92.1c-12.3,52.9-19.6,118.1-14.4,194.9
			c0.1,1.6,1.5,2.7,3,2.6c0.1,0,0.2,0,0.4,0c1.4-0.3,2.4-1.5,2.3-3c-7-101.6,8.2-183.3,29.2-245.2c5.3-6.2,21.1-22,45.1-25.7
			c1.1-0.3,1.9-1.3,1.8-2.4c-0.2-1.2-1.3-1.9-2.4-1.8c-19,3-32.9,12.9-41.2,20.5c15.5-43,33.6-75.7,48.2-98
			c4.7-2.1,17.6-7.1,37.5-8.8c1.2-0.1,2-1.1,1.9-2.3C899.3,1350.6,898.3,1349.8,897.2,1349.9z"/>
	</g>
	<g>
		<path class="st3" d="M730.5,1600.5c-20,0.4-57.5-22.7-82.4-39.7c-10.4-7.1-10.5-21.9-0.7-29.9c6.6-5.4,11.4-12.7,8.9-21.8
			c-3.1-11.5-30.1-15.5-56.1-16.6c-15.5-0.7-23.7-18.7-13.8-30.6c4.9-5.9,8-11.7,7.4-16.3c-1.3-9.8-33.2-30.6-59.3-46
			c-12.5-7.4-12.1-25.5,0.6-32.6c8.7-4.9,14.8-10.6,11.8-16.1c-2.7-5.1-8.9-17.4-15.8-31.3c-8.3-16.6,10.1-33.9,26.2-24.7
			c20.4,11.7,40.7,22.8,49,25.8c7.6,2.8,16.9-1.7,25.3-8.2c11-8.5,27.1-1.9,29.6,11.7c7.5,40.8,21.8,102.5,41.5,110.5
			c6.6,2.7,13.2,2.3,19.2,0.4c12-3.8,24.1,6.1,23.7,18.7C743.9,1506.8,739.7,1600.3,730.5,1600.5z"/>
	</g>
	<path class="st1" d="M720,1562.4c0.5-0.2,0.9-0.5,1.1-0.9c0.7-1.4,18.1-35,14.2-85c-0.1-1.2-1.1-2-2.3-1.9c-1.2,0.1-2,1.1-2,2.3
		c3.3,42.2-9.3,73.1-12.8,80.8c-14.2-38.5-31.2-72.8-48.3-102.2c5.6-68.1-29.3-123.9-29.6-124.4c-0.6-1-1.9-1.3-2.9-0.7
		c-1,0.6-1.3,1.9-0.7,2.9c0.3,0.5,32.4,51.8,29.4,115.6c-40.6-68.1-80.3-107.6-81.1-108.4c-1.1-1.1-2.9-1.1-4,0
		c-1.1,1.1-1.1,2.9,0,4c0.7,0.7,28.9,28.8,61.9,78.3c-19.4-7.2-40.3-10.9-60-10.6c-1.2,0-2.1,1-2.1,2.2c0,1.2,1,2.1,2.1,2.1
		c0,0,0,0,0,0c21-0.4,43.6,4,64,12.5c11.4,17.4,23.1,37.3,34.5,59.3c-10.9-7.4-32.1-17.6-59.2-10.4c-1.1,0.3-1.8,1.5-1.5,2.6
		c0.3,1.1,1.5,1.8,2.6,1.5c34.4-9.1,58.6,11.5,62.5,15.1c31.1,62.6,57.9,141.8,61.5,232.5c0.1,1.5,1.3,2.7,2.8,2.7c0,0,0.1,0,0.1,0
		c1.6-0.1,2.8-1.4,2.7-2.9C750.7,1667.9,737.7,1611.8,720,1562.4z"/>
	<path class="st4" d="M763.1,1685.2h-11.2h-96.2l25.3,168.2c1.7,11.4,11.5,19.8,23,19.8h107c11.5,0,21.3-8.4,23-19.8l25.3-168.2
		H763.1z"/>
	<polygon class="st2" points="854.3,1718.6 859.3,1685.2 763.1,1685.2 751.8,1685.2 655.6,1685.2 660.6,1718.6 	"/>
	<path class="st4" d="M876.1,1699.4H638.8c-5.7,0-9.5-5.7-7.4-11l4.9-12.3c1.2-3,4.2-5,7.4-5h227.5c3.3,0,6.2,2,7.4,5l4.9,12.3
		C885.7,1693.6,881.8,1699.4,876.1,1699.4z"/>
</g>
<g>
	<path class="st2" d="M609.2,881.9l-88.9-13.2C468,863.3,437,885.5,419,918.2c39.1,42.8,95.3,69.7,157.8,69.7
		c39.7,0,76.8-10.9,108.6-29.7C675,880.7,609.2,881.9,609.2,881.9z"/>
	<path class="st1" d="M543.9,770c1.4,29.5-0.8,82.7-23.7,98.8c0,0,28.8,57.2,71.3,76.2c26.1-17.8,17.6-63.1,17.6-63.1
		c-30.8-12.3-26.4-35.9-17.6-57.4L543.9,770z"/>
	<path class="st5" d="M563.4,792.3l28.3,32.3c-2.2,5-3.9,10.1-5.2,15.4c-11.9-3.6-26.7-19.4-26.1-32.4
		C560.4,802.3,561.4,797.1,563.4,792.3z"/>
	<path class="st1" d="M522.2,716.1c3.8,48.2,4.4,68.7,29.2,93.1c37.3,36.6,95.8,21.4,106.4-27c9.6-43.6,1.8-114.9-45.9-133.5
		c-34-13.3-72.2,3.5-85.5,37.4C522.7,695.6,521.3,705.9,522.2,716.1z"/>
	<path class="st2" d="M626,733.1c3.6,8.9,8.5,17.3,14.5,24.8c-4,3-9.1,4.1-14,2.9L626,733.1z"/>
	<path class="st2" d="M609.3,775.8c2.2,0,4.4-0.2,6.6-0.6c0.6-0.1,1-0.7,0.9-1.3c0,0,0,0,0,0c-0.1-0.6-0.7-1-1.3-0.9
		c-9.7,1.9-19.8-0.9-27.1-7.6c-0.4-0.5-1.2-0.5-1.6-0.1c-0.5,0.4-0.5,1.2-0.1,1.6C592.8,772.7,600.9,775.9,609.3,775.8z"/>
	<path class="st2" d="M581.8,714.1c0.6,0.1,1.3,0,1.8-0.3c4.8-3.4,11-4.2,16.5-2.3c1.3,0.3,2.5-0.4,2.9-1.7c0.3-1-0.2-2-1-2.6
		c-6.9-2.6-14.7-1.6-20.8,2.5c-1,0.7-1.3,2.1-0.7,3.2C580.8,713.5,581.3,713.9,581.8,714.1z"/>
	<path class="st2" d="M646.3,713.9c0.5-0.1,1-0.4,1.3-0.8c0.7-0.9,0.5-2.2-0.4-2.8l0,0c-5.2-4-12.1-5.3-18.4-3.4
		c-1,0.4-1.6,1.6-1.2,2.7c0.4,1.1,1.6,1.6,2.6,1.2c5-1.5,10.4-0.4,14.5,2.8C645.2,713.9,645.8,714,646.3,713.9z"/>
	<g>
		<path class="st2" d="M573.9,991.6c-118.3,0-214.6-96.3-214.6-214.6c0-118.3,96.3-214.6,214.6-214.6
			c118.3,0,214.6,96.3,214.6,214.6C788.6,895.3,692.3,991.6,573.9,991.6z M573.9,569.2c-114.5,0-207.7,93.2-207.7,207.7
			c0,114.5,93.2,207.7,207.7,207.7c114.5,0,207.7-93.2,207.7-207.7C781.6,662.4,688.5,569.2,573.9,569.2z"/>
	</g>
	<path class="st2" d="M591.7,730.3c0.1,3.2,1.8,5.8,3.9,5.7c2.1,0,3.7-2.6,3.7-5.8c-0.1-3.2-1.8-5.7-3.9-5.7
		C593.2,724.6,591.6,727.2,591.7,730.3z"/>
	<path class="st2" d="M632.5,730.3c0.1,3.2,1.8,5.8,3.9,5.7c2.1,0,3.7-2.6,3.7-5.8c-0.1-3.2-1.8-5.7-3.9-5.7
		C634,724.6,632.4,727.2,632.5,730.3z"/>
	<path class="st2" d="M531.2,754.3c0,0,21.7-9,16.8-33.7c0,0,29.3-10.6,26-34.6c0,0,45.4,10.6,48.2-7.1c0,0,41,18.4,43.8,0
		c2.8-18.4-18-24.7-18-24.7s2.2-41.7-37.5-27.6c0,0-23.1-24-50.3,3.5c0,0-27.4-12-40,25.5c0,0-26.1,12.7-18.3,40.3
		c0,0-18.1,17.4-4.9,34.5C497,730.3,493.2,778.8,531.2,754.3z"/>
	<path class="st1" d="M513.3,759.4c5.4,8.2,13.8,14,23.4,16.1c12.8,2.6,18.3-9.1,13.9-20.7c-3.9-10.4-15.3-24.3-27.7-21.7
		C510.5,735.7,506.8,749.2,513.3,759.4z"/>
</g>
<g>
	<path class="st2" d="M2203.8,1177.4c0,0-140.1-27.7-137,0c0,0-12-28.4,0.6-83.1c12.7-54.7,17-66,17-66l77.6-7.4l59.5,35l3.5,58
		l-5.3,35.7L2203.8,1177.4z"/>
	<path class="st2" d="M2119.1,1243.2l88.9-13.2c52.2-5.5,83.3,16.7,101.3,49.5c-39.1,42.8-95.3,69.7-157.8,69.7
		c-39.7,0-76.8-10.9-108.6-29.7C2053.3,1242,2119.1,1243.2,2119.1,1243.2z"/>
	<path class="st1" d="M2184.4,1131.2c-1.4,29.5,0.8,82.7,23.7,98.8c0,0-24.9,52.1-71.3,48c-31.5-2.8-17.6-34.8-17.6-34.8
		c30.8-12.3,26.4-35.9,17.6-57.4L2184.4,1131.2z"/>
	<path class="st5" d="M2164.9,1153.5l-28.3,32.3c2.2,5,3.9,10.1,5.2,15.4c11.9-3.6,26.7-19.4,26.1-32.4
		C2167.9,1163.6,2166.9,1158.4,2164.9,1153.5z"/>
	<path class="st1" d="M2206.1,1077.3c-3.8,48.2-4.4,68.7-29.2,93.1c-37.3,36.6-95.8,21.4-106.4-27c-9.6-43.6-1.8-114.9,45.9-133.5
		c34-13.3,72.2,3.5,85.5,37.4C2205.6,1056.9,2207,1067.1,2206.1,1077.3z"/>
	<path class="st2" d="M2102.3,1094.3c-3.6,8.9-8.5,17.3-14.5,24.8c4,3,9.1,4.1,14,2.9L2102.3,1094.3z"/>
	<path class="st2" d="M2119,1137.1c-2.2,0-4.4-0.2-6.6-0.6c-0.6-0.1-1-0.7-0.9-1.3c0,0,0,0,0,0c0.1-0.6,0.7-1,1.3-0.9
		c9.7,1.9,19.8-0.9,27.1-7.6c0.4-0.5,1.2-0.5,1.6-0.1c0.5,0.4,0.5,1.2,0.1,1.6C2135.5,1134,2127.4,1137.2,2119,1137.1z"/>
	<path class="st2" d="M2146.5,1075.4c-0.6,0.1-1.3,0-1.8-0.3c-4.8-3.4-11-4.2-16.5-2.3c-1.3,0.3-2.5-0.4-2.9-1.7c-0.3-1,0.2-2,1-2.6
		c6.9-2.6,14.7-1.6,20.8,2.5c1,0.7,1.3,2.1,0.7,3.2C2147.5,1074.7,2147,1075.2,2146.5,1075.4z"/>
	<path class="st2" d="M2082,1075.2c-0.5-0.1-1-0.4-1.3-0.8c-0.7-0.9-0.5-2.2,0.4-2.8l0,0c5.2-4,12.1-5.3,18.4-3.4
		c1,0.4,1.6,1.6,1.2,2.7c-0.4,1.1-1.6,1.6-2.6,1.2c-5-1.5-10.4-0.4-14.5,2.8C2083.1,1075.2,2082.5,1075.3,2082,1075.2z"/>
	<g>
		<path class="st2" d="M1939.7,1138.2c0-118.3,96.3-214.6,214.6-214.6c118.3,0,214.6,96.3,214.6,214.6
			c0,118.3-96.3,214.6-214.6,214.6C2036,1352.8,1939.7,1256.5,1939.7,1138.2z M1946.7,1138.2c0,114.5,93.2,207.7,207.7,207.7
			c114.5,0,207.7-93.2,207.7-207.7c0-114.5-93.2-207.7-207.7-207.7C2039.8,930.5,1946.7,1023.7,1946.7,1138.2z"/>
	</g>
	<path class="st2" d="M2136.6,1091.6c-0.1,3.2-1.8,5.8-3.9,5.7c-2.1,0-3.7-2.6-3.7-5.8c0.1-3.2,1.8-5.7,3.9-5.7
		C2135,1085.9,2136.7,1088.5,2136.6,1091.6z"/>
	<path class="st2" d="M2095.8,1091.6c-0.1,3.2-1.8,5.8-3.9,5.7c-2.1,0-3.7-2.6-3.7-5.8c0.1-3.2,1.8-5.7,3.9-5.7
		C2094.2,1085.9,2095.9,1088.5,2095.8,1091.6z"/>
	<path class="st2" d="M2133,1085.8c0,0-4.1,1.2-7.8-1.3c0,0,0.5,4.4,7.7,3.5L2133,1085.8z"/>
	<path class="st2" d="M2092.2,1085.8c0,0-4.1,1.2-7.8-1.3c0,0,0.5,4.4,7.7,3.5L2092.2,1085.8z"/>
	<path class="st2" d="M2195,1113.5c0,0-32.9,5.5-30-38.1c2.8-43.6-24-19.2-30-41.1c0,0-11.9-1.4-8.2,12.7c0,0-58.2,16.3-59.8-0.7
		c-1.6-17,25.6-60.4,77.9-47.4c0,0,62.2-9.5,78.8,49.5c16.6,59,3.9,95.8,25.8,113.5s-55.8,19.4-55.8,19.4L2195,1113.5z"/>
	<path class="st1" d="M2215,1120.7c-5.4,8.2-13.8,14-23.4,16.1c-12.8,2.6-18.3-9.1-13.9-20.7c3.9-10.4,15.3-24.3,27.7-21.7
		C2217.8,1097,2221.5,1110.5,2215,1120.7z"/>
</g>
<g>
	<g>
		<path class="st3" d="M2150.9,471c-63.8,0-115.7-51.9-115.7-115.7c0-63.8,51.9-115.7,115.7-115.7c63.8,0,115.7,51.9,115.7,115.7
			C2266.6,419.1,2214.7,471,2150.9,471z M2150.9,248.2c-59.1,0-107.2,48.1-107.2,107.2c0,59.1,48.1,107.2,107.2,107.2
			c59.1,0,107.2-48.1,107.2-107.2C2258.1,296.3,2210,248.2,2150.9,248.2z"/>
	</g>
	<path class="st3" d="M2150.9,466.8c20.7,0,40-5.7,56.6-15.6c-0.8-12.5-1.7-27.2-2.2-34.4c-1.1-16.2-14.7-28.8-30.9-28.8h-47
		c-16.3,0-29.8,12.6-30.9,28.8c-0.5,7.2-1.4,21.9-2.2,34.4C2110.9,461,2130.2,466.8,2150.9,466.8z"/>
	<path class="st3" d="M2179.2,332.9c0,15.6-12.7,33.9-28.3,33.9s-28.3-18.3-28.3-33.9c0-15.6,12.7-28.3,28.3-28.3
		S2179.2,317.3,2179.2,332.9z"/>
</g>
<ellipse id="_x3C_Path_x3E__1_" class="st1" cx="1421.4" cy="2044.6" rx="1096.6" ry="64"/>
<g>
	<g>
		<g>
			<path class="st6" d="M2094.8,1581.4h-373.6c-14,0-25.3-11.3-25.3-25.3v-37.2h424.2v37.2
				C2120.1,1570.1,2108.8,1581.4,2094.8,1581.4z"/>
			<path class="st7" d="M2094.8,1581.4h-373.6c-14,0-25.3-11.3-25.3-25.3v-37.2h424.2v37.2
				C2120.1,1570.1,2108.8,1581.4,2094.8,1581.4z"/>
		</g>
		<g>
			<path class="st8" d="M2060.9,1576.3h-305.7c-5.7,0-10.4,4.4-10.8,10.1l-33.1,445.9c-0.3,4.7,3.2,8.7,7.8,9.1l0,0
				c4.7,0.3,8.7-3.2,9.1-7.8l32.3-434.9c0.2-3,2.7-5.3,5.7-5.3h283.7c3,0,5.5,2.3,5.7,5.3l32.3,434.9c0.3,4.7,4.4,8.2,9.1,7.8l0,0
				c4.7-0.3,8.2-4.4,7.8-9.1l-33.1-445.9C2071.3,1580.7,2066.6,1576.3,2060.9,1576.3z"/>
			<g>
				<path class="st8" d="M1908,2041.3L1908,2041.3c-4.7,0-8.5-3.8-8.5-8.5V1586h17v446.8C1916.5,2037.5,1912.7,2041.3,1908,2041.3z"
					/>
			</g>
			<g>
				<path class="st8" d="M1825.7,1586L1825.7,1586c4.7,0,8.5-3.8,8.5-8.5V1536c0-4.7-3.8-8.5-8.5-8.5l0,0c-4.7,0-8.5,3.8-8.5,8.5
					v41.5C1817.2,1582.2,1821,1586,1825.7,1586z"/>
				<g>
					<path class="st8" d="M1990.3,1586L1990.3,1586c4.7,0,8.5-3.8,8.5-8.5V1536c0-4.7-3.8-8.5-8.5-8.5l0,0c-4.7,0-8.5,3.8-8.5,8.5
						v41.5C1981.8,1582.2,1985.6,1586,1990.3,1586z"/>
				</g>
			</g>
		</g>
	</g>
	<g>
		<g>
			<path class="st6" d="M1930.8,1402.1c-0.4,0-0.8,0-1.2,0v-4.4c0-6.1-5-11.1-11.1-11.1h-63.7c-6.1,0-11.1,5-11.1,11.1v68.5
				c0,21.5,17.4,38.9,38.9,38.9h8.1c18.6,0,34.2-13.1,38-30.6c0.7,0,1.4,0.1,2.1,0.1c23.6,0,38.2-20.9,38.2-40.9
				C1969,1413.7,1954.5,1402.1,1930.8,1402.1z M1930,1462c-0.1,0-0.2,0-0.4,0v-47.3c0.1,0,0.2,0,0.4,0c15.4,0,24.9,7.6,24.9,20.6
				S1945.5,1462,1930,1462z"/>
			<path class="st9" d="M1930.8,1402.1c-0.4,0-0.8,0-1.2,0v-4.4c0-6.1-5-11.1-11.1-11.1h-63.7c-6.1,0-11.1,5-11.1,11.1v68.5
				c0,21.5,17.4,38.9,38.9,38.9h8.1c18.6,0,34.2-13.1,38-30.6c0.7,0,1.4,0.1,2.1,0.1c23.6,0,38.2-20.9,38.2-40.9
				C1969,1413.7,1954.5,1402.1,1930.8,1402.1z M1930,1462c-0.1,0-0.2,0-0.4,0v-47.3c0.1,0,0.2,0,0.4,0c15.4,0,24.9,7.6,24.9,20.6
				S1945.5,1462,1930,1462z"/>
			<path class="st10" d="M1930,1462c-0.1,0-0.2,0-0.4,0v4.3c0,2.8-0.3,5.6-0.9,8.3c0.7,0,1.4,0.1,2.1,0.1c3.4,0,6.6-0.5,9.6-1.3
				v-13.7C1937.4,1461.1,1933.9,1462,1930,1462z"/>
			<path class="st10" d="M1846.2,1479.4c5.4,15,19.7,25.7,36.6,25.7h8.1c16.8,0,31.1-10.7,36.6-25.7H1846.2z"/>
			<path class="st10" d="M1930.8,1402.1c-0.4,0-0.8,0.1-1.2,0.1v12.6c0.1,0,0.2,0,0.4,0c3.9,0,7.4,0.5,10.4,1.4v-13.3
				C1937.5,1402.4,1934.3,1402.1,1930.8,1402.1z"/>
		</g>
		<g>
			<path class="st6" d="M1954,1486h-136.4c-5.9,0-7.6,8-2.3,10.4l30,13.9v8.5h81v-8.5l30-13.9C1961.6,1494,1959.9,1486,1954,1486z"
				/>
			<path class="st11" d="M1954,1486h-136.4c-5.9,0-7.6,8-2.3,10.4l30,13.9v8.5h81v-8.5l30-13.9C1961.6,1494,1959.9,1486,1954,1486z"
				/>
		</g>
	</g>
</g>
<g>
	<g>
		<g>
			<path class="st6" d="M1628.8,491.6c-19.8,0-39.7-5-57.7-15.4l-53.3,10.3l10.3-53.3c-26.1-45.4-18.5-102.7,18.6-139.8
				c21.9-21.9,51.1-34,82.1-34s60.2,12.1,82.1,34c21.9,21.9,34,51.1,34,82.1c0,31-12.1,60.2-34,82.1l0,0
				C1688.5,480,1658.8,491.6,1628.8,491.6z M1572.6,467.2l1.4,0.8c42.3,25.1,96.1,18.3,130.9-16.4l0,0
				c20.3-20.3,31.5-47.4,31.5-76.1c0-28.8-11.2-55.8-31.5-76.1c-20.3-20.3-47.4-31.5-76.1-31.5s-55.8,11.2-76.1,31.5
				c-34.7,34.7-41.5,88.5-16.4,130.9l0.8,1.4l-8.5,44.1L1572.6,467.2z"/>
		</g>
		<g class="st12">
			<path class="st13" d="M1628.8,491.6c-19.8,0-39.7-5-57.7-15.4l-53.3,10.3l10.3-53.3c-26.1-45.4-18.5-102.7,18.6-139.8
				c21.9-21.9,51.1-34,82.1-34s60.2,12.1,82.1,34c21.9,21.9,34,51.1,34,82.1c0,31-12.1,60.2-34,82.1l0,0
				C1688.5,480,1658.8,491.6,1628.8,491.6z M1572.6,467.2l1.4,0.8c42.3,25.1,96.1,18.3,130.9-16.4l0,0
				c20.3-20.3,31.5-47.4,31.5-76.1c0-28.8-11.2-55.8-31.5-76.1c-20.3-20.3-47.4-31.5-76.1-31.5s-55.8,11.2-76.1,31.5
				c-34.7,34.7-41.5,88.5-16.4,130.9l0.8,1.4l-8.5,44.1L1572.6,467.2z"/>
		</g>
	</g>
	<g>
		<path class="st6" d="M1621.8,435.2l-62.7-68.7c-4.6-5.1-3.9-13.3,1.6-18.3l0,0c5.5-5.1,13.7-5.1,18.3,0l45.9,50.3l106.3-97.8
			c5.5-5.1,13.7-5.1,18.3,0l0,0c4.6,5.1,3.9,13.3-1.6,18.3L1621.8,435.2z"/>
	</g>
</g>
<g>
	<g>
		<g>
			
				<ellipse transform="matrix(0.7071 -0.7071 0.7071 0.7071 55.1786 1557.7355)" class="st6" cx="1907.9" cy="712.3" rx="188.9" ry="188.9"/>
			
				<ellipse transform="matrix(0.7071 -0.7071 0.7071 0.7071 55.1786 1557.7355)" class="st14" cx="1907.9" cy="712.3" rx="188.9" ry="188.9"/>
			<g>
				<g>
					<path class="st6" d="M1693.3,712.3c0-118.3,96.3-214.6,214.6-214.6c118.3,0,214.6,96.3,214.6,214.6
						c0,118.3-96.3,214.6-214.6,214.6C1789.6,926.9,1693.3,830.6,1693.3,712.3z M1700.3,712.3c0,114.5,93.2,207.7,207.7,207.7
						s207.7-93.2,207.7-207.7c0-114.5-93.2-207.7-207.7-207.7S1700.3,597.7,1700.3,712.3z"/>
				</g>
				<g class="st12">
					<path class="st13" d="M1693.3,712.3c0-118.3,96.3-214.6,214.6-214.6c118.3,0,214.6,96.3,214.6,214.6
						c0,118.3-96.3,214.6-214.6,214.6C1789.6,926.9,1693.3,830.6,1693.3,712.3z M1700.3,712.3c0,114.5,93.2,207.7,207.7,207.7
						s207.7-93.2,207.7-207.7c0-114.5-93.2-207.7-207.7-207.7S1700.3,597.7,1700.3,712.3z"/>
				</g>
			</g>
		</g>
		<path class="st8" d="M1792,837.4c15.7-18.5,83.9-12.3,83.9-12.3l66.7-6.4c54.7-11.3,83.3,3.8,100.8,24.6c0.1,0.1,0.2,0.2,0.2,0.3
			c-34.4,35.5-82.5,57.6-135.8,57.6c-47.5,0-90.9-17.6-124.1-46.5C1786.2,847.2,1788.9,841,1792,837.4z"/>
		<path class="st8" d="M1841.4,593.6c0,0-39.8,3.6-15.5,57.8l27.2-15.7l4.4-32.9L1841.4,593.6z"/>
		<path class="st15" d="M1841.4,593.6c0,0-39.8,3.6-15.5,57.8l27.2-15.7l4.4-32.9L1841.4,593.6z"/>
		<path class="st16" d="M1951.3,819.1c-6.4,13-24.2,35.7-71.4,35.7c-28.6,0-30.6-11.8-22.1-25.1c27.7-13.4,27.9-40.7,20.5-64.3
			l61.7-59.3c-4.1,30.4-6.9,82.8,9.8,109.4C1950.4,816.7,1950.9,817.9,1951.3,819.1z"/>
		<path class="st17" d="M1914.8,730.5l-36.6,34.9c1.8,6.1,3.1,12.3,3.8,18.6c14.4-3,32.3-16.3,37.1-32.5
			C1922.2,741.5,1918.6,731.4,1914.8,730.5z"/>
		<path class="st16" d="M1949.8,656.2c-3.2,46.2-9,73.4-32.6,96.8c-35.4,35.4-86.1,13.5-96.6-32.6c-9.5-41.8-2.5-110.1,42.9-128.1
			c32.3-13,69.1,2.7,82,35.1C1949.1,636.6,1950.6,646.4,1949.8,656.2z"/>
		<path class="st8" d="M1877.3,668.9c0,3.8-2,6.8-4.5,6.8c-2.5,0-4.4-3.1-4.4-6.9c0-3.8,2.1-6.8,4.5-6.7
			C1875.5,662.1,1877.4,665.2,1877.3,668.9z"/>
		<path class="st8" d="M1834.8,668.5c-0.1,3.7-2.1,6.8-4.5,6.7c-2.5,0-4.4-3.1-4.4-6.8c0.1-3.7,2-6.8,4.5-6.8
			C1833,661.7,1834.9,664.7,1834.8,668.5z"/>
		<path class="st18" d="M1850.6,670.1c-4.6,11.4-10.8,22.2-18.3,32c6.8,6.3,18,3.6,18,3.6L1850.6,670.1z"/>
		<path class="st8" d="M1892.1,651.4c0.4,0,0.8-0.1,1.1-0.2c0.9-0.8,1.1-2.1,0.5-3.1c-4.1-5.8-10.8-9.2-17.9-9.3
			c-1.2,0.1-2.2,1.1-2.1,2.3c0.1,1.2,1.1,2.2,2.3,2.1l0,0c5.6,0.1,10.9,2.9,14.1,7.5C1890.6,651.3,1891.4,651.5,1892.1,651.4z"/>
		<path class="st8" d="M1818.5,651.2c0.7-0.1,1.4-0.5,1.7-1.2c2.3-5.1,7-8.7,12.4-9.8c1.2-0.1,2.1-1.2,1.9-2.4
			c-0.1-1.2-1.2-2.1-2.5-1.9c-7,1.3-13,5.9-16,12.3c-0.5,1.1-0.1,2.3,0.9,2.9c0,0,0,0,0.1,0C1817.5,651.2,1818,651.3,1818.5,651.2z"
			/>
		<path class="st8" d="M1940.1,693.6c0,0-21.1,3.3-19.8-5.5c1.3-8.8,12.3-39.3,9.9-52.4c-1.1-6.1-7.6-18.3-13.2-21
			c-20.2-10.1-175.1,14.4-48.5-76.5V550c0,0,25.3-17.4,30.8-11.3c4,4.5-11,21.6-11,21.6s33.2-18.3,38.2-9.7
			c3.2,5.5-17.7,18.5-17.7,18.5S2058.1,611.1,1940.1,693.6z"/>
		<g>
			<path class="st8" d="M1850.1,708.8c0,0,45.4-8.1,43.5,8.1c-1.9,16.2-9.3,60.1-25.6,60.1c-6.9,0-2.8-6.3-2.8-6.3
				s-7.6,6.3-15.1,6.3c-6.7,0-0.7-9.6-0.7-9.6s-8.2,7.5-14.9,5.8c-2.8-0.7,0.8-5.3-1.3-11.7c-5-15.2-13.6-40.5-11.1-48.3
				C1825.5,701.9,1850.1,708.8,1850.1,708.8z"/>
			<path class="st14" d="M1850.1,708.8c0,0,45.4-8.1,43.5,8.1c-1.9,16.2-9.3,60.1-25.6,60.1c-6.9,0-2.8-6.3-2.8-6.3
				s-7.6,6.3-15.1,6.3c-6.7,0-0.7-9.6-0.7-9.6s-8.2,7.5-14.9,5.8c-2.8-0.7,0.8-5.3-1.3-11.7c-5-15.2-13.6-40.5-11.1-48.3
				C1825.5,701.9,1850.1,708.8,1850.1,708.8z"/>
		</g>
		<path class="st13" d="M1834.5,717.1c0,0,12.4-1.2,46.3,2.3c-5.1,8.6-13.5,15.3-30.7,13.3C1832.8,730.8,1834.5,717.1,1834.5,717.1z
			"/>
		<path class="st14" d="M1983.2,646.2c-2.9,8.2-8.5,17-17.8,26.4c-19.9,1.4-32.7-3.2-39.4-6.8c1.9-7.4,3.7-15.2,4.3-21.7
			C1959.7,649.7,1975.4,648.2,1983.2,646.2z"/>
		<path class="st16" d="M1971.9,699.6c-6.3,9.8-16.2,16.6-27.6,19.1c-15.1,3.1-21.7-10.6-16.6-24.3c4.5-12.3,17.9-28.9,32.6-25.9
			C1975.1,671.5,1979.6,687.4,1971.9,699.6z"/>
	</g>
	<g>
		<polygon class="st6" points="2081,556.5 2095.7,570.7 2115.9,567.8 2119.4,587.9 2137.4,597.5 2128.5,615.8 2137.4,634.2 
			2119.4,643.7 2115.9,663.8 2095.7,661 2081,675.2 2066.3,661 2046.1,663.8 2042.6,643.7 2024.5,634.2 2033.5,615.8 2024.5,597.5 
			2042.6,587.9 2046.1,567.8 2066.3,570.7 		"/>
		<g class="st19">
			<path class="st13" d="M2070,639l-21-23c-1.6-1.7-1.3-4.5,0.5-6.2l0,0c1.8-1.7,4.6-1.7,6.2,0l15.4,16.9l35.7-32.8
				c1.8-1.7,4.6-1.7,6.2,0l0,0c1.6,1.7,1.3,4.5-0.5,6.2L2070,639z"/>
		</g>
	</g>
</g>
<g>
	<g>
		
			<ellipse transform="matrix(0.7071 -0.7071 0.7071 0.7071 -84.766 847.6947)" class="st6" cx="980.9" cy="526.2" rx="188.9" ry="188.9"/>
		
			<ellipse transform="matrix(0.7071 -0.7071 0.7071 0.7071 -84.766 847.6947)" class="st14" cx="980.9" cy="526.2" rx="188.9" ry="188.9"/>
		<g>
			<g>
				<path class="st6" d="M980.9,740.8c-118.3,0-214.6-96.3-214.6-214.6c0-118.3,96.3-214.6,214.6-214.6
					c118.3,0,214.6,96.3,214.6,214.6C1195.5,644.5,1099.2,740.8,980.9,740.8z M980.9,318.5c-114.5,0-207.7,93.2-207.7,207.7
					c0,114.5,93.2,207.7,207.7,207.7c114.5,0,207.7-93.2,207.7-207.7C1188.6,411.6,1095.4,318.5,980.9,318.5z"/>
			</g>
			<g class="st12">
				<path class="st13" d="M980.9,740.8c-118.3,0-214.6-96.3-214.6-214.6c0-118.3,96.3-214.6,214.6-214.6
					c118.3,0,214.6,96.3,214.6,214.6C1195.5,644.5,1099.2,740.8,980.9,740.8z M980.9,318.5c-114.5,0-207.7,93.2-207.7,207.7
					c0,114.5,93.2,207.7,207.7,207.7c114.5,0,207.7-93.2,207.7-207.7C1188.6,411.6,1095.4,318.5,980.9,318.5z"/>
			</g>
		</g>
	</g>
	<g>
		<path class="st6" d="M980.9,715.1c40.5,0,78-12.8,108.7-34.5c-8.1-24-18.4-53-24.7-66.7c-14.6-31.6-31.4-41.6-157.5-42.7
			c-58.9-0.5-77.6,30.5-80.9,63.7C860.7,683.5,917.1,715.1,980.9,715.1z"/>
		<path class="st20" d="M980.9,715.1c40.5,0,78-12.8,108.7-34.5c-8.1-24-18.4-53-24.7-66.7c-14.6-31.6-31.4-41.6-157.5-42.7
			c-58.9-0.5-77.6,30.5-80.9,63.7C860.7,683.5,917.1,715.1,980.9,715.1z"/>
	</g>
	<g>
		<path class="st8" d="M1044.7,393.8c0,0,32.4-4.4,20.7-23c-1.3-2-4.5-1.3-4.7,1.1C1060.1,378.2,1056.9,387.2,1044.7,393.8z"/>
	</g>
	<g>
		<path class="st8" d="M935.2,345.2c0,0-45.4,6.3-36.8-23.2c1-3.2,5.6-3.5,6.8-0.3C908.5,329.9,916.3,340.9,935.2,345.2z"/>
	</g>
	<path class="st8" d="M927,460.3c0,0-16.8,42.7-38.3,20.6c-2.4-2.4-0.3-6.6,3.1-6.1C900.6,476.1,914,474.7,927,460.3z"/>
	<path class="st8" d="M976.7,336.9c0,0,35.5-4.5,26.6-31c-8.9-26.5-18-41.6-14.7-58c0,0-8.6,0.8-7.7,15.1c0,0-9.6-31.9-36.9-29.4
		c-27.3,2.5-17.7,26.9-40.3,23.5c0,0,9.2,10.5,18.9,1.7c0,0-2.5,18.9-27.3,8.4c0,0,15,10.7,15.2,29.8c0.4,32.8-0.2,53.1,22.6,45.1
		L976.7,336.9z"/>
	<path class="st6" d="M928.1,354.2c0,0-12.4-18.2,26.7-23.3c39.1-5,34.5,12.1,34.5,12.1L928.1,354.2z"/>
	<path class="st21" d="M922.1,478.3c4.1,30.3,7.4,74.3-14.7,93.1c27.4,17.9,51.5,40.3,71.2,66.3c2.9,3.8,8.4,4.5,12.2,1.5
		c0.8-0.6,1.5-1.4,2-2.2c25.6-40.3,7.7-60.2,7.7-60.2c-19.5-4.3-17.1-21.7-10.1-44.6L922.1,478.3z"/>
	<path class="st17" d="M940.9,501.6l37.9,21.3l11.7,9.2c-3.7,9.5-5.4,19.7-5,29.9C960.8,555,932.4,522,940.9,501.6z"/>
	<path class="st21" d="M923.1,407.4c-8,49.6-12.4,70.6,6.7,100.9c28.7,46.1,91.3,45,113.9-1.2c20.2-41.6,30.3-115.7-13.5-145.9
		c-31-21.7-73.7-14.2-95.4,16.8C928.6,386.8,924.6,396.8,923.1,407.4z"/>
	<path class="st8" d="M998.2,437.9c-0.9,4,0.5,7.7,3.1,8.3c2.6,0.6,5.4-2.2,6.3-6.2c0.9-4-0.5-7.7-3.1-8.3
		C1001.9,431.1,999.1,433.9,998.2,437.9z"/>
	<path class="st8" d="M1043.2,448c-0.9,4,0.5,7.7,3.1,8.3c2.6,0.6,5.4-2.2,6.4-6.2c0.9-4-0.5-7.7-3.1-8.3
		C1047,441.2,1044.1,444,1043.2,448z"/>
	<path class="st8" d="M1048.4,441.7l10.1-0.6C1058.5,441.1,1051.9,447.5,1048.4,441.7z"/>
	<path class="st8" d="M1016.1,498.1c2,0.4,4,0.6,6,0.7c0.7-0.1,1.1-0.8,0.9-1.4c-0.1-0.5-0.5-0.8-0.9-0.9
		c-10.3-0.3-19.9-5.4-25.8-13.9c-0.3-0.6-1-0.8-1.6-0.5c-0.5,0.4-0.7,1.1-0.5,1.7C999.3,491.3,1007.2,496.5,1016.1,498.1z"/>
	<path class="st8" d="M995.2,404.1c0.8,0.6,2,0.6,2.8,0c9.1-6.3,22.6-1.5,22.7-1.5c1.2,0.5,2.6-0.2,3.1-1.4c0.5-1.2-0.2-2.6-1.4-3.1
		c-0.7,0-15.9-5.7-27.1,2c-1.1,0.8-1.3,2.2-0.6,3.3C994.8,403.7,995,403.9,995.2,404.1z"/>
	<path class="st8" d="M1061.8,430.1c0.5,0.7,1.4,1,2.2,0.9c1.3-0.2,2.2-1.4,2-2.7c-0.8-7.7-5.3-14.5-12.1-18.3
		c-1.2-0.6-2.6-0.1-3.2,1.1c-0.6,1.2-0.1,2.6,1.1,3.2c5.3,3.1,8.8,8.5,9.4,14.6C1061.4,429.4,1061.5,429.8,1061.8,430.1z"/>
	<path class="st8" d="M1003.3,431.7l10.1-0.6C1013.4,431.1,1007,437.5,1003.3,431.7z"/>
	<path class="st22" d="M1026.6,449.8c1.7,10.6,5,20.9,9.7,30.7c-5.4,2.2-11.6,2-16.8-0.5L1026.6,449.8z"/>
	<path class="st6" d="M1020.7,445.6c-1.7,9.7-10.9,16.1-20.6,14.4c-9.7-1.7-16.1-10.9-14.4-20.6L1020.7,445.6z"/>
	<path class="st6" d="M1064.2,453.3c-1.7,9.7-10.9,16.1-20.6,14.4c-9.7-1.7-16.1-10.9-14.4-20.6L1064.2,453.3z"/>
	<g>
		<path class="st8" d="M1048.6,469.9c-1.2,0-2.3-0.1-3.5-0.3c-10-1.8-17-10.9-16.2-20.9l-5-0.9c-1.2,4.4-3.9,8.2-7.7,10.8
			c-4.3,3-9.5,4.2-14.7,3.2c-10-1.8-17-10.9-16.2-20.9l-9.1-1.6l-57.4-6.4l0.4-3.8l57.5,6.4l12.8,2.3l-0.2,1.3
			c-0.6,3.2-0.4,6.6,0.9,9.6c2.4,5.5,7.5,9.1,13.4,9.6c8.3,0.7,15.6-5.7,17-13.9l0-0.2c0.1-0.5,0.5-0.8,1-0.7l10.5,1.9
			c0.5,0.1,0.8,0.5,0.7,1l0,0c-1.6,8.8,4.2,18.1,13.1,19.5c4,0.6,8.1-0.3,11.4-2.7c3.5-2.4,5.8-6.1,6.5-10.2l3.7,0.7
			c-0.9,5.2-3.8,9.7-8.1,12.7C1056.5,468.7,1052.6,469.9,1048.6,469.9z"/>
	</g>
	<path class="st8" d="M916.3,445.6c0,0-44.9-99.1,47.9-107.1c12.4-1.1,37.7-2.9,49.7,0c15.6,3.7,54.1,27.5,39.1,50.9
		c0,0-13.7-19.4-59.4-15C947.7,378.8,953.5,454.9,916.3,445.6z"/>
	<path class="st21" d="M901.6,443.5c1.5,9.6,6.8,18.2,14.7,23.9c10.4,7.5,20.2-0.8,20.8-13c0.7-10.9-3.9-28-16.2-30.7
		c-8.9-1.8-17.6,4-19.4,13C901.1,438.9,901.1,441.2,901.6,443.5z"/>
	<g>
		<path class="st6" d="M925.2,500c-10.9,1.6-21.1-5.9-22.7-16.8c-1.2-8.4,3-16.6,10.4-20.6l1.8,3.3c-6.1,3.2-9.5,9.9-8.5,16.7
			c1.3,8.8,9.5,14.9,18.4,13.6c8.8-1.3,14.9-9.5,13.6-18.4c-1.1-7.6-7.5-13.4-15.1-13.8l0.2-3.8c9.4,0.5,17.2,7.7,18.6,17
			C943.6,488.2,936,498.3,925.2,500z"/>
	</g>
</g>
<g>
	<polygon class="st6" points="1146.1,350.5 1160.7,364.7 1181,361.8 1184.5,381.9 1202.5,391.5 1193.5,409.8 1202.5,428.2 
		1184.5,437.7 1181,457.9 1160.7,455 1146.1,469.2 1131.4,455 1111.2,457.9 1107.6,437.7 1089.6,428.2 1098.6,409.8 1089.6,391.5 
		1107.6,381.9 1111.2,361.8 1131.4,364.7 	"/>
	<g class="st19">
		<path class="st13" d="M1135.1,433l-21-23c-1.6-1.7-1.3-4.5,0.5-6.2l0,0c1.8-1.7,4.6-1.7,6.2,0l15.4,16.9l35.7-32.8
			c1.8-1.7,4.6-1.7,6.2,0l0,0c1.6,1.7,1.3,4.5-0.5,6.2L1135.1,433z"/>
	</g>
</g>
<g>
	<g>
		
			<ellipse transform="matrix(0.7071 -0.7071 0.7071 0.7071 -541.1967 909.1754)" class="st6" cx="826.9" cy="1107.9" rx="188.9" ry="188.9"/>
		
			<ellipse transform="matrix(0.7071 -0.7071 0.7071 0.7071 -541.1967 909.1754)" class="st14" cx="826.9" cy="1107.9" rx="188.9" ry="188.9"/>
		<path class="st8" d="M898,1187c26.9-28.7,21-66,10.3-112.5c-5.6-24,25.2-41.3,3.7-76.5c-20.1-33.8-138.5-66.7-141.6-5.6
			c-41.6,12-42.7,49.4-38.6,109c1.6,22.7-4.9,33.8-13.5,41.9c-22.2,20.8-11.9,57.8,17.9,63.4C787.6,1216.3,864.2,1223,898,1187z"/>
		<path class="st6" d="M855.6,1203l-78.7-11.6c-46.2-4.8-73.7,14.8-89.6,43.8c34.6,37.9,84.3,61.7,139.6,61.7
			c35.1,0,68-9.6,96.1-26.3C913.8,1202,855.6,1203,855.6,1203z"/>
		<path class="st23" d="M797.8,1104c1.2,26.1-0.7,73.1-20.9,87.4c0,0,25.5,50.6,63.1,67.5c23.1-15.7,15.6-55.8,15.6-55.8
			c-27.2-10.9-23.4-31.7-15.6-50.8L797.8,1104z"/>
		<path class="st17" d="M815,1123.7l25,28.6c-1.9,4.4-3.5,9-4.6,13.6c-10.5-3.1-23.6-17.2-23.1-28.6
			C812.4,1132.6,813.3,1128,815,1123.7z"/>
		<path class="st23" d="M778.6,1056.3c3.4,42.7,3.9,60.8,25.8,82.3c33,32.3,84.7,18.9,94.2-23.9c8.5-38.5,1.6-101.7-40.6-118.2
			c-30-11.7-63.9,3.1-75.7,33.1C779.1,1038.2,777.8,1047.2,778.6,1056.3z"/>
		<path class="st8" d="M808,992.5c55.5,18.2-47.9,98.4-46.7,145.3C739,1082.7,747.1,972.5,808,992.5z"/>
		<path class="st24" d="M870.5,1066.3c3.2,7.9,7.5,15.3,12.8,21.9c-3.5,2.6-8.1,3.6-12.4,2.6L870.5,1066.3z"/>
		<path class="st8" d="M855.7,1104.2c2,0,3.9-0.2,5.8-0.5c0.6-0.1,0.9-0.6,0.8-1.2c0,0,0,0,0,0c-0.1-0.5-0.6-0.9-1.2-0.8
			c-8.6,1.7-17.5-0.8-24-6.7c-0.4-0.4-1-0.5-1.5-0.1c-0.4,0.4-0.5,1-0.1,1.5C841.1,1101.4,848.2,1104.2,855.7,1104.2z"/>
		<path class="st8" d="M785.4,992.4c-17.1,31.4,32.3,13.5,72.2,26.5c37,12,55.7,36,51.6,1.2C904.2,977.2,812.4,943,785.4,992.4z"/>
		<path class="st8" d="M831.7,1049c0.6-0.1,1.1-0.4,1.4-0.9c2.8-4.4,7.5-7.2,12.7-7.6c1.1-0.2,1.9-1.2,1.7-2.4
			c-0.1-0.9-0.8-1.6-1.7-1.7c-6.5,0.3-12.5,3.7-16.1,9.2c-0.6,0.9-0.4,2.2,0.6,2.8C830.6,1048.9,831.1,1049.1,831.7,1049z"/>
		<path class="st8" d="M849.3,1060.1c-0.3,0-0.6,0.1-0.9,0.3c-2.3,2.1-5.4,3-8.5,2.4c-0.6-0.2-1.3,0.2-1.5,0.8
			c-0.2,0.6,0.1,1.3,0.8,1.5c0,0,0,0,0.1,0c3.9,0.8,7.9-0.3,10.8-3c0.5-0.5,0.5-1.2,0-1.7c0,0,0,0,0,0
			C849.9,1060.3,849.6,1060.1,849.3,1060.1z"/>
		<path class="st8" d="M888,1058.2c-0.3,0-0.6,0.1-0.9,0.3c-2.2,2.2-5.4,3.1-8.5,2.6c-0.6-0.1-1.3,0.2-1.5,0.9
			c-0.2,0.6,0.2,1.3,0.8,1.5c0,0,0,0,0,0c3.9,0.8,7.8-0.4,10.7-3.1c0.5-0.5,0.5-1.2,0-1.7c0,0,0,0,0,0
			C888.6,1058.4,888.3,1058.3,888,1058.2z"/>
		<path class="st8" d="M891.5,1042.4c0.5,0,1-0.3,1.3-0.7c0.7-0.9,0.6-2.1-0.3-2.9l0,0c-5-4.3-11.8-5.9-18.2-4.3
			c-1.1,0.4-1.6,1.5-1.3,2.6c0.3,1.1,1.5,1.7,2.5,1.3c5.1-1.2,10.4,0.1,14.4,3.6C890.4,1042.4,891,1042.5,891.5,1042.4z"/>
		<g>
			<g>
				<path class="st6" d="M826.9,1322.5c-118.3,0-214.6-96.3-214.6-214.6c0-118.3,96.3-214.6,214.6-214.6
					c118.3,0,214.6,96.3,214.6,214.6C1041.5,1226.2,945.2,1322.5,826.9,1322.5z M826.9,900.2c-114.5,0-207.7,93.2-207.7,207.7
					c0,114.5,93.2,207.7,207.7,207.7s207.7-93.2,207.7-207.7C1034.6,993.3,941.4,900.2,826.9,900.2z"/>
			</g>
			<g class="st12">
				<path class="st13" d="M826.9,1322.5c-118.3,0-214.6-96.3-214.6-214.6c0-118.3,96.3-214.6,214.6-214.6
					c118.3,0,214.6,96.3,214.6,214.6C1041.5,1226.2,945.2,1322.5,826.9,1322.5z M826.9,900.2c-114.5,0-207.7,93.2-207.7,207.7
					c0,114.5,93.2,207.7,207.7,207.7s207.7-93.2,207.7-207.7C1034.6,993.3,941.4,900.2,826.9,900.2z"/>
			</g>
		</g>
	</g>
</g>
<g>
	<path class="st23" d="M1293,1305.5l-49.5,722.5l40.5,10.2c0,0,77.9-250.5,81-391.3c3.1-140.8-0.4-170.7,44.2-250.2L1293,1305.5z"/>
	<path class="st23" d="M1434.5,1315.4l55.8,722.9l42.4-0.3c0,0,45.5-258.7,27.8-398.4c-17.7-139.7-41.2-167.3-8-253.2L1434.5,1315.4
		z"/>
	<path class="st8" d="M1493.5,2029.8l44.1,0.9c1.9,0,3.6,1.4,3.9,3.3l8.5,41.6c0.8,3.7-1.6,7.3-5.3,8.1c-0.5,0.1-1,0.1-1.4,0.1
		c-18.4-0.7-34.7-2-57.5-2.3c-27-0.5-20.2,2.9-51.9,2.7c-19.1-0.1-22.2-21.9-14.1-22.8c37.2-4,48.1-15.1,62.6-28.1
		C1485.6,2030.8,1489.5,2029.5,1493.5,2029.8z"/>
	<path class="st8" d="M1243.1,2023.4l43.5,7.3c1.9,0.3,3.3,1.9,3.4,3.8l2.3,42.4c0.2,3.8-2.6,7-6.4,7.2c-0.5,0-1,0-1.4-0.1
		c-18.1-3.3-34-7-56.6-10.7c-26.6-4.4-20.4-0.1-51.8-4.8c-18.9-2.9-18.8-24.9-10.6-24.6c37.4,1.4,49.8-8,66.1-18.8
		C1235,2023.3,1239.2,2022.6,1243.1,2023.4z"/>
	<path class="st17" d="M1434.5,1315.4l20.9,271.5c28.4-3.7,59.9-8.8,94.7-15.7c-9.7-56.9-17.6-89.7-13.2-126.6
		c-0.3-20.1,2-39.6,8.5-62.4L1434.5,1315.4z"/>
	<path class="st17" d="M1366.3,1589.8c2-93.9,5.3-125.7,43.1-193.1l-116.3-91.1L1274,1584
		C1294.8,1587.3,1324.9,1590.2,1366.3,1589.8z"/>
	<path class="st8" d="M1306.6,1076.9c0,0-29.8,248.5-38.1,483.8c0,0,81.2,23.2,294.9-9.9c0,0-8.5-39.3-4.6-93.1
		c6.3-85.1,31.4-177.5,4.6-266.5c-29.6-98.3-61.3-125.9-61.3-125.9l-185.6-8.3L1306.6,1076.9z"/>
	<path class="st6" d="M1371.7,742.5l154.9,4c11.4,0.3,19.4,11.5,15.8,22.4c-16.1,49.4-49.6,176.5-23.8,314.6h-217.1l-3.3-203.8
		c0,0-16.9-43.1,53.1-127.9C1356.4,745.7,1363.9,742.3,1371.7,742.5z"/>
	<path class="st25" d="M1371.7,742.5l154.9,4c11.4,0.3,19.4,11.5,15.8,22.4c-16.1,49.4-49.6,176.5-23.8,314.6h-217.1l-3.3-203.8
		c0,0-16.9-43.1,53.1-127.9C1356.4,745.7,1363.9,742.3,1371.7,742.5z"/>
	<path class="st23" d="M1172.4,893.7l-43.1-16.2l-14.3-32.9c-0.4-1-1-2-1.7-2.8l-36.1-43.3c-1.9-2.3-5.3-2.8-7.9-1.2l0,0
		c-2.9,1.9-3.6,5.9-1.5,8.7l19.2,24.7l-7.2,34.1c-1.2,5.6,0.3,11.5,4.1,15.8l3.3,3.7c1.5,1.7,3.3,3.2,5.4,4.2l24.2,12.5l41.4,20.7
		L1172.4,893.7z"/>
	<path class="st6" d="M1354.5,742.5c0,0-62.3,20-89.1,156.8c-1.7,8.7-10.5,14-18.9,11.4l-94.9-29.7l-12.4,34.7
		c0,0,94.9,67.4,139.2,57.5C1322.7,963.3,1354.5,742.5,1354.5,742.5z"/>
	<path class="st10" d="M1277,852.9c-2.8,15.2-4,31.8-2.8,49.8c2.4,33.4,2.3,55.8,1.2,71c1-0.1,2-0.3,2.9-0.5
		c44.3-9.8,76.1-230.7,76.1-230.7S1306.9,757.8,1277,852.9z"/>
	<path class="st8" d="M1523.7,611.8c-4-13.8,0.1-27.9-10.2-40.7c-5.5-6.8-7.9-15.5-8.4-24.3c-2.6-45.3-58.2-59.5-98.9-59.7
		c-45-0.2-27.2,18.3-65.1,27.2c-37.9,8.9-17.3,55.7-7,69.1c10.3,13.4,0.8,36.5-20.2,72.1c0,0-22.7,41.9,95.2,23.1
		C1409,678.6,1553.6,715.1,1523.7,611.8z"/>
	<path class="st23" d="M1469.3,649.4c-7.7,26.8-17.3,76.3,0.3,96.1c0,0-25.6,18.4-73.8,35.3c-28.2-27.6-11.7-38.4-11.7-38.4
		c31-4.9,32.8-31.5,29.6-53L1469.3,649.4z"/>
	<path class="st17" d="M1449.7,678.5c0.7-4.9,0.6-9.9,0-14.9l-35.9,25.8c0.6,4.2,1.1,8.7,1.1,13.1
		C1428,701.2,1447.3,691.5,1449.7,678.5z"/>
	<path class="st23" d="M1483.8,601.4c-12.3,44.1-16.5,63-43.9,81.2c-41.3,27.3-92.8,2.6-94-44.3c-1.1-42.2,19.1-107.2,66.6-115.7
		c33.9-6.2,66.5,16.2,72.7,50.1C1487,582.3,1486.5,592.1,1483.8,601.4z"/>
	<path class="st23" d="M1486.8,639c-4.2,7.8-11.4,13.5-19.9,16c-11.3,3.2-17-6.9-13.9-17.6c2.8-9.6,12-22.8,23.4-21.4
		c8.2,1.3,13.8,9.1,12.5,17.3C1488.6,635.4,1487.9,637.3,1486.8,639z"/>
	<path class="st8" d="M1464.3,512.2c7.7,13.7-12.4,38.6-53.9,35.6c-31.3-2.3-71,30.7-67.3-5.6
		C1346.3,509.1,1425.2,494.5,1464.3,512.2z"/>
	<path class="st8" d="M1441.4,521.8c-21.9,16.2-8,46.7,2.2,60.5c10.2,13.8,26.1,26.8,13.3,46.7c-12.8,20-17.9,44.9,22,35.8
		c39.9-9.1,34.8-45,23.8-75.7C1491.7,558.3,1467.5,502.5,1441.4,521.8z"/>
	<path class="st24" d="M1381.9,599.3c-5,7.6-11,14.5-17.9,20.5c3.2,3.5,7.7,5.4,12.4,5.2L1381.9,599.3z"/>
	<path class="st8" d="M1433.8,585c0.3,0,0.6-0.1,0.9-0.2c0.9-0.5,1.2-1.6,0.7-2.5c0,0,0,0,0,0c-3.3-6.1-9.4-10.1-16.3-10.9
		c-1,0-1.8,0.7-1.9,1.7c0,1,0.7,1.8,1.7,1.9c5.7,0.7,10.6,4.1,13.4,9.1C1432.6,584.6,1433.2,585,1433.8,585z"/>
	<path class="st8" d="M1356.6,569.2c0.3,0,0.6-0.1,0.9-0.2c4.9-2.8,10.9-3.1,16.1-0.8c0.9,0.5,2,0.2,2.5-0.7c0,0,0,0,0,0
		c0.5-0.9,0.1-2-0.8-2.5c-6.3-2.9-13.6-2.6-19.6,0.8c-0.9,0.4-1.3,1.5-0.8,2.4C1355.2,568.8,1355.9,569.2,1356.6,569.2L1356.6,569.2
		z"/>
	<g>
		<path class="st8" d="M1408.8,598.8c-0.8,3.6-3.3,6.1-5.7,5.7c-2.4-0.5-3.7-3.8-2.9-7.5c0.8-3.7,3.3-6.1,5.7-5.7
			C1408.3,591.7,1409.6,595.1,1408.8,598.8z"/>
		<path class="st8" d="M1367.7,590c-0.8,3.6-3.3,6.1-5.7,5.7c-2.4-0.5-3.7-3.8-2.9-7.5c0.8-3.7,3.3-6.1,5.7-5.7
			C1367.1,583,1368.5,586.3,1367.7,590z"/>
		<path class="st8" d="M1365.8,582.9l-8.2-4.4C1357.6,578.6,1360.6,586.3,1365.8,582.9z"/>
		<path class="st8" d="M1406.9,591.7l-8.2-4.4C1398.7,587.3,1401.8,595.1,1406.9,591.7z"/>
	</g>
	<path class="st6" d="M1470.9,736c-4.6-0.3-9.1,1.5-12,5c-14,16.4-52.4,70.3-52.4,171.8c0,81,4.7,157.5,8,201
		c1.5,19.3,20.1,32.5,38.8,27.6l89.1-23.7c0,0-35.2-88.6-27.1-182.5c5.7-65.4,24.3-133.3,35.1-168.5c3.9-12.6-5-25.5-18.1-26.4
		L1470.9,736z"/>
	<path class="st6" d="M1388.6,735.5c3.5,0,5.3,4.2,2.8,6.7c-16,15.8-50.9,62.9-56.7,177.3c-4.9,98.3-9.1,167.5-11.4,203.3
		c-0.9,13.6-15.1,22.2-27.5,16.6l-7.5-3.3c0,0,11.3-53.3,8.1-170.2c-3.2-116.8-20.9-122.4,26.7-186.4c4.6-6.2,14.8-19,23-29.2
		c7.5-9.3,18.7-14.7,30.6-14.7H1388.6z"/>
	<path class="st23" d="M1472.4,745.1l-99.1-2.6c-6.8,26.7-17.4,80.3-2.9,112.3C1370.3,854.8,1424.5,794.6,1472.4,745.1z"/>
	<path class="st6" d="M1432.5,1057l68.8-10.8l2.8,5.9c3.5,7.3-1.1,16-9.2,17.1l-45.4,6.3c-5.6,0.8-10.9-2.4-12.9-7.7L1432.5,1057z"
		/>
	<path class="st26" d="M1432.5,1057l68.8-10.8l2.8,5.9c3.5,7.3-1.1,16-9.2,17.1l-45.4,6.3c-5.6,0.8-10.9-2.4-12.9-7.7L1432.5,1057z"
		/>
	<g>
		<path class="st6" d="M1291.6,1057h17.4l-1.4,11.6c-1.1,8.8-9.2,14.9-17.9,13.5l-6.3-1L1291.6,1057z"/>
		<path class="st26" d="M1291.6,1057h17.4l-1.4,11.6c-1.1,8.8-9.2,14.9-17.9,13.5l-6.3-1L1291.6,1057z"/>
	</g>
	<path class="st23" d="M1562.6,1030.5l-16.3,36.5l-33.7,24.1c-4.4,3.1-6.4,8.7-5,13.9l0,0c1,3.6,3.4,6.6,6.8,8.3l18.2,9
		c5.8,2.9,12.9,1,16.5-4.4l12.6-19c2.1-3.1,3.5-6.6,4.1-10.2l1.7-9.4l22.6-37L1562.6,1030.5z"/>
	<path class="st10" d="M1530.2,783.6l-16.1,7.5c0,0-17.7,46.6,5.4,108.5c5.9-39.3,15-77.1,23-105.9L1530.2,783.6z"/>
	<path class="st6" d="M1432.9,798.7c28.3-9.1,46.1,2.3,46.1,2.3c11.5-33.8,3.6-49.6,1.8-64.3l-9.8-0.7c-4.6-0.3-9,1.5-12,5
		c-14,16.4-52.4,70.3-52.4,171.8c0,25.7,0.5,51,1.2,75c14-110.7,49.7-152,49.7-152C1454.3,809.3,1432.9,798.7,1432.9,798.7z"/>
	<path class="st6" d="M1388.6,735.5h-9.1c-16.2,9.4-38.2,25.8-44.8,48.1c0,0,10.5-5.8,19.8,4.1c0,0-17.3,7.5-29.7,28.2
		c0,0-1.4,74.4,8.3,135.9c0.5-10.4,1.1-21.1,1.6-32.3c5.7-114.4,40.7-161.5,56.7-177.2C1393.9,739.8,1392.1,735.5,1388.6,735.5z"/>
	<path class="st26" d="M1432.9,798.7c28.3-9.1,46.1,2.3,46.1,2.3c11.5-33.8,3.6-49.6,1.8-64.3l-9.8-0.7c-4.6-0.3-9,1.5-12,5
		c-14,16.4-52.4,70.3-52.4,171.8c0,25.7,0.5,51,1.2,75c14-110.7,49.7-152,49.7-152C1454.3,809.3,1432.9,798.7,1432.9,798.7z"/>
	<path class="st26" d="M1388.6,735.5h-9.1c-16.2,9.4-38.2,25.8-44.8,48.1c0,0,10.5-5.8,19.8,4.1c0,0-17.3,7.5-29.7,28.2
		c0,0-1.4,74.4,8.3,135.9c0.5-10.4,1.1-21.1,1.6-32.3c5.7-114.4,40.7-161.5,56.7-177.2C1393.9,739.8,1392.1,735.5,1388.6,735.5z"/>
	<path class="st6" d="M1543.3,744.4c0,0,20.9,1,58.2,83.1s52.2,138.8-19.1,233.4l-31.1-14.7c0,0,31.9-75.4,30.2-113.5
		s-37-76.1-54.8-100.3C1514.5,815.7,1500,787.3,1543.3,744.4z"/>
	<path class="st27" d="M1407.9,1262.4c12.3,186,0.6,270.5-8,305.4c13.4-0.6,28-1.4,43.7-2.7c-4.1-107.9-25.6-250.9-33.8-302.7
		H1407.9z"/>
	<path class="st8" d="M1387.2,645.2c-1.9,0-3.8-0.2-5.7-0.5c-0.5-0.1-0.9-0.6-0.8-1.1c0,0,0,0,0,0c0.1-0.5,0.6-0.9,1.1-0.8
		c8.4,1.6,17.1-0.8,23.5-6.6c0.4-0.4,1-0.4,1.4-0.1c0.4,0.4,0.4,1,0.1,1.4C1401.5,642.5,1394.5,645.3,1387.2,645.2z"/>
</g>
</svg>
