<?xml version="1.0" encoding="UTF-8"?> <svg xmlns="http://www.w3.org/2000/svg" width="250" height="61" viewBox="0 0 250 61" fill="none"><g clip-path="url(#clip0_1002_1985)"><path d="M104.225 45.7353C107.279 40.3849 110.34 35.0345 113.394 29.6765C115.378 26.2003 117.385 22.7316 119.307 19.2176C120.524 16.9958 121.516 14.6683 121.764 12.114C122.036 9.401 120.943 7.33792 118.339 6.24971C116.99 5.68293 115.556 5.40332 114.107 5.22195C111.363 4.88188 108.604 4.59471 105.853 4.29243C105.318 4.23198 104.783 4.21686 104.218 4.17908C103.644 8.03317 103.078 11.8344 102.505 15.6658C105.419 16.225 108.287 16.7691 111.208 17.3283C111.077 17.555 110.984 17.7137 110.883 17.8649C107.163 23.8652 103.427 29.8504 99.7225 35.8582C98.2112 38.3067 96.5139 40.6418 95.2506 43.2339C94.1191 45.5615 92.9875 47.8815 92.3598 50.398C91.5305 53.7306 92.5303 55.8768 95.6691 57.1842C97.0797 57.7736 98.5755 58.2346 100.071 58.5369C103.063 59.1339 106.093 59.5949 109.108 60.0861C110.007 60.2372 110.922 60.3128 111.852 60.4262C112.712 56.3076 113.564 52.2419 114.425 48.1384C110.914 47.4885 107.457 46.8462 103.962 46.1962C104.078 46.0073 104.148 45.8713 104.225 45.7353Z" fill="#1C4F78"></path><path d="M93.1039 41.9492C94.5454 41.5713 95.7079 40.1279 95.7079 38.5939C95.6227 37.5056 95.2197 36.3796 94.7857 35.2612C91.5228 26.9862 88.26 18.7188 84.9893 10.4514C84.4623 9.12894 83.9973 7.78379 83.2145 6.5671C81.4552 3.83901 76.7973 3.77856 75.0845 6.66535C74.6117 7.45884 74.201 8.30523 73.8755 9.16673C70.7986 17.2301 67.7373 25.3086 64.6914 33.3795C64.1334 34.8607 63.5599 36.3343 63.1336 37.8533C62.7074 39.3571 63.3429 40.7476 64.6527 41.594C66.2415 42.6218 68.1945 42.1532 69.0936 40.5285C69.2873 40.1808 69.4811 39.8257 69.6128 39.4478C70.2639 37.6417 70.8994 35.828 71.5194 34.0067C71.6201 33.712 71.7519 33.6138 72.0697 33.6138C76.7818 33.6138 81.5017 33.6062 86.2139 33.5911C86.5704 33.5911 86.7176 33.712 86.8339 34.0218C87.4849 35.7071 88.1592 37.3923 88.8335 39.07C89.0117 39.5158 89.2287 39.9541 89.469 40.3773C90.2673 41.798 91.5848 42.3497 93.1039 41.9492ZM73.767 26.8124C75.5418 21.9608 77.3011 17.1545 79.0526 12.3407C79.0914 12.3407 79.1224 12.3407 79.1611 12.3407C80.8817 17.1394 82.61 21.9381 84.3538 26.8124C80.7964 26.8124 77.3166 26.8124 73.767 26.8124Z" fill="#1C4F78"></path><path d="M124.043 21.4167C123.919 22.1422 123.741 22.8601 123.578 23.5856C122.322 29.2987 121.074 35.0118 119.811 40.725C119.741 41.0499 119.811 41.133 120.137 41.1255C121.012 41.1028 121.888 41.0877 122.764 41.0877C127.127 41.0726 131.491 41.065 135.854 41.0499C135.97 41.0499 136.087 41.0424 136.203 41.0499C136.451 41.065 136.567 40.9743 136.614 40.725C136.699 40.2489 136.831 39.7879 136.932 39.3118C137.04 38.8206 137.141 38.3218 137.249 37.7702C133.033 37.7702 128.879 37.7702 124.702 37.7702C124.717 37.6341 124.717 37.551 124.733 37.4754C125.12 35.8582 125.523 34.2486 125.895 32.6314C125.973 32.2837 126.112 32.1553 126.5 32.1553C129.786 32.1553 133.064 32.1402 136.35 32.125C137.226 32.1175 137.234 32.125 137.428 31.2786C137.606 30.4776 137.776 29.6766 137.947 28.8755C137.854 28.8528 137.815 28.8302 137.769 28.8302C135.854 28.8377 133.948 28.8377 132.033 28.8453C130.414 28.8528 128.794 28.868 127.174 28.8755C126.941 28.8755 126.724 28.868 126.81 28.5279C127.12 27.1752 127.43 25.8149 127.716 24.4546C127.771 24.2053 127.879 24.1297 128.127 24.1297C128.871 24.1297 129.615 24.0995 130.359 24.0995C133.204 24.0843 136.056 24.0768 138.9 24.0768C139.264 24.0768 139.443 24.0012 139.512 23.6082C139.652 22.7845 139.846 21.9684 140.047 21.1522C140.132 20.8273 140.008 20.7744 139.729 20.7819C139.435 20.7895 139.148 20.7819 138.854 20.7819C134.157 20.797 129.453 20.8197 124.756 20.8197C124.275 20.8121 124.113 20.986 124.043 21.4167Z" fill="#F7931E"></path><path d="M155.354 46.6345C156.617 46.6345 157.811 46.6269 159.004 46.6421C159.376 46.6496 159.5 46.4985 159.57 46.166C160.051 43.9064 160.554 41.6469 161.058 39.3873C161.081 39.2739 161.143 39.1681 161.205 39.0246C161.314 39.1455 161.384 39.221 161.446 39.2966C162.848 41.133 164.801 41.5486 166.979 41.269C168.886 41.0196 170.351 39.9843 171.521 38.5409C173.582 36.0017 174.071 33.1074 173.396 30.009C172.831 27.4321 170.916 26.0038 168.227 25.9962C166.662 25.9962 165.297 26.5403 164.057 27.4245C163.871 27.553 163.685 27.6814 163.499 27.8175C163.468 27.8023 163.43 27.7872 163.399 27.7646C163.484 27.3187 163.577 26.8728 163.67 26.3741C163.499 26.3665 163.36 26.3514 163.22 26.3514C162.228 26.3514 161.236 26.3665 160.244 26.3438C159.903 26.3363 159.772 26.4496 159.694 26.7746C158.4 32.7144 157.09 38.6467 155.788 44.579C155.641 45.2516 155.493 45.9393 155.354 46.6345ZM163.647 30.334C164.352 29.3515 165.297 28.747 166.576 28.7394C168.196 28.7319 169.428 29.8276 169.599 31.3995C169.8 33.2661 169.289 34.9664 168.382 36.5761C168.049 37.1731 167.553 37.6341 166.948 37.9817C165.189 38.9792 163.182 38.2613 162.531 36.372C162.352 35.8582 162.298 35.2989 162.221 34.9135C162.368 33.1754 162.701 31.6564 163.647 30.334Z" fill="#F7931E"></path><path d="M207.226 40.7854C209.086 41.3521 210.993 41.3673 212.9 41.1028C214.535 40.8685 215.945 40.1732 217.015 38.8885C217.829 37.8986 218.162 36.7726 217.96 35.5332C217.782 34.3921 217.054 33.5457 216.015 33.0545C215.023 32.586 213.969 32.2459 212.931 31.8832C212.094 31.596 211.233 31.3844 210.396 31.0972C210.094 30.9914 209.83 30.7572 209.551 30.5834C209.575 30.5229 209.59 30.4624 209.613 30.402C212.791 30.3189 215.961 30.2357 219.17 30.1602C218.906 28.2256 217.565 26.7595 215.604 26.2607C213.83 25.7997 212.032 25.7997 210.233 26.1323C208.885 26.3816 207.676 26.8955 206.699 27.8704C204.901 29.6614 205.056 32.7825 207.846 33.9387C208.614 34.2561 209.389 34.5357 210.164 34.8229C211.148 35.178 212.156 35.4652 213.117 35.8733C213.946 36.2209 214.047 37.1278 213.388 37.7323C213.217 37.8835 213.024 38.0195 212.814 38.1253C210.838 39.1455 208.451 38.4729 207.335 36.5988C207.257 36.4703 207.017 36.3494 206.862 36.372C206.126 36.4552 205.397 36.5761 204.661 36.6894C204.196 36.765 203.731 36.8481 203.219 36.9313C203.289 37.1202 203.328 37.2562 203.382 37.3847C204.119 39.1077 205.413 40.2337 207.226 40.7854Z" fill="#F7931E"></path><path d="M223.169 40.7854C225.029 41.3521 226.935 41.3673 228.842 41.1028C230.477 40.8685 231.888 40.1732 232.957 38.8885C233.771 37.8986 234.104 36.7726 233.903 35.5332C233.724 34.3921 232.996 33.5457 231.957 33.0545C230.965 32.586 229.911 32.2459 228.873 31.8832C228.036 31.596 227.176 31.3844 226.338 31.0972C226.036 30.9914 225.773 30.7572 225.494 30.5834C225.517 30.5229 225.532 30.4624 225.556 30.402C228.733 30.3189 231.903 30.2357 235.112 30.1602C234.848 28.2256 233.507 26.7595 231.547 26.2607C229.772 25.7997 227.974 25.7997 226.176 26.1323C224.827 26.3816 223.618 26.8955 222.642 27.8704C220.844 29.6614 220.999 32.7825 223.789 33.9387C224.556 34.2561 225.331 34.5357 226.106 34.8229C227.09 35.178 228.098 35.4652 229.059 35.8733C229.888 36.2209 229.989 37.1278 229.33 37.7323C229.16 37.8835 228.966 38.0195 228.757 38.1253C226.78 39.1455 224.393 38.4729 223.277 36.5988C223.2 36.4703 222.959 36.3494 222.804 36.372C222.068 36.4552 221.34 36.5761 220.603 36.6894C220.138 36.765 219.673 36.8481 219.162 36.9313C219.231 37.1202 219.27 37.2562 219.324 37.3847C220.053 39.1077 221.347 40.2337 223.169 40.7854Z" fill="#F7931E"></path><path d="M187.541 35.5332C187.727 37.1882 188.432 38.5862 189.742 39.6669C192.113 41.6317 196.027 41.8131 198.794 40.1052C200.011 39.3571 200.887 38.3293 201.561 37.0371C200.406 36.8481 199.337 36.6668 198.259 36.5156C198.097 36.4929 197.856 36.6214 197.725 36.7423C197.391 37.0597 197.151 37.4678 196.787 37.7474C195.725 38.5711 194.516 38.7978 193.26 38.2311C192.051 37.687 191.486 36.6743 191.431 35.3896C191.416 34.7624 191.424 34.7624 192.113 34.7624C195.268 34.7548 198.422 34.7322 201.569 34.7473C202.041 34.7473 202.196 34.5735 202.204 34.1729C202.235 33.1301 202.367 32.0721 202.274 31.0368C202.049 28.6185 200.569 26.9106 198.461 26.2456C197.306 25.8829 196.12 25.8451 194.919 25.9811C193.222 26.17 191.679 26.7066 190.408 27.8477C188.106 29.9108 187.207 32.5104 187.541 35.5332ZM191.966 31.9738C192.323 30.5833 193.028 29.4347 194.454 28.883C196.26 28.1878 198.523 28.9435 198.6 31.5506C198.631 32.5784 198.74 32.4575 197.686 32.465C196.872 32.4726 196.05 32.465 195.237 32.465V32.4726C194.291 32.4726 193.338 32.4726 192.392 32.4726C191.858 32.4726 191.842 32.4499 191.966 31.9738Z" fill="#F7931E"></path><path d="M144.938 33.0319C145.178 33.4475 145.162 33.6969 144.814 34.0521C142.674 36.2512 140.566 38.4805 138.443 40.6947C138.334 40.8156 138.226 40.9365 138.102 41.0801C139.745 41.0801 141.318 41.0877 142.891 41.065C143.062 41.065 143.256 40.9063 143.387 40.7778C144.465 39.6367 145.542 38.4956 146.604 37.3394C146.728 37.2034 146.79 37.022 146.883 36.8557C147.146 37.1278 147.232 37.2563 147.301 37.3923C147.906 38.4956 148.518 39.5914 149.115 40.7023C149.254 40.9592 149.417 41.065 149.727 41.065C150.913 41.0499 152.091 41.0574 153.277 41.0499C153.385 41.0499 153.494 41.0272 153.664 41.0121C153.525 40.7552 153.409 40.5436 153.292 40.3395C152.184 38.3596 151.068 36.3721 149.952 34.3921C149.805 34.1352 149.797 33.9538 150.022 33.7196C152.192 31.4524 154.346 29.1702 156.501 26.888C156.625 26.7595 156.741 26.6235 156.912 26.4346C156.695 26.427 156.571 26.4119 156.439 26.4119C155.098 26.4119 153.75 26.4195 152.409 26.4043C152.091 26.4043 151.866 26.4875 151.649 26.7217C150.549 27.9157 149.417 29.0946 148.309 30.2811C148.2 30.3945 148.154 30.5532 148.084 30.6967C147.821 30.4171 147.72 30.266 147.635 30.1073C147.046 29.0266 146.449 27.9535 145.875 26.8653C145.705 26.5328 145.511 26.3817 145.108 26.3968C144.31 26.4346 143.504 26.4119 142.698 26.4119C142.233 26.4119 141.775 26.4119 141.248 26.4119C141.341 26.6008 141.403 26.7217 141.473 26.8426C142.636 28.9133 143.767 30.9839 144.938 33.0319Z" fill="#F7931E"></path><path d="M175.427 41.0348C176.481 41.0197 177.527 40.9894 178.581 41.0045C178.977 41.0121 179.108 40.8534 179.178 40.5133C179.55 38.7903 179.899 37.0673 180.333 35.3594C180.612 34.2788 180.968 33.1981 181.402 32.1704C181.844 31.135 182.658 30.3718 183.681 29.8277C184.526 29.3818 185.402 29.2609 186.347 29.4876C186.448 29.5103 186.649 29.3516 186.711 29.2307C187.138 28.407 187.548 27.5681 187.951 26.7368C188.006 26.631 188.037 26.5101 188.083 26.3817C186.587 25.7544 185.208 25.8678 183.883 26.7142C183.038 27.2507 182.387 27.9762 181.79 28.7546C181.705 28.8679 181.612 28.9737 181.519 29.0871C181.488 29.0644 181.449 29.0493 181.418 29.0266C181.604 28.15 181.79 27.2658 181.984 26.359C181.813 26.3439 181.697 26.3288 181.588 26.3288C180.581 26.3288 179.573 26.3363 178.566 26.3212C178.264 26.3137 178.14 26.4043 178.078 26.7066C177.481 29.4952 176.861 32.2837 176.249 35.0723C175.822 37.022 175.388 38.9793 174.931 41.0272C175.14 41.0348 175.288 41.0348 175.427 41.0348Z" fill="#F7931E"></path><path d="M126.879 7.99535C129.127 7.9878 130.941 6.20433 130.941 3.99012C130.941 1.74568 129.143 0 126.833 0C124.547 0 122.725 1.79102 122.733 4.01279C122.741 6.21945 124.593 8.00291 126.879 7.99535Z" fill="#F58220"></path><path d="M249.992 56.9801H118.602V59.7611H249.992V56.9801Z" fill="#F7931E"></path><path d="M249.992 52.1058H118.602V54.8868H249.992V52.1058Z" fill="#F7931E"></path><path d="M61.2813 6.04565H7.03723V8.82665H61.2813V6.04565Z" fill="#F7931E"></path><path d="M54.2673 10.7234H14.09V13.5044H54.2673V10.7234Z" fill="#F7931E"></path><path d="M68.3573 1.17139H0V3.95238H68.3573V1.17139Z" fill="#F7931E"></path></g><defs><clipPath id="clip0_1002_1985"><rect width="250" height="60.4337" fill="white"></rect></clipPath></defs></svg> 